#!OML:ASF X:\für Bonn\!DataBase\2005_08_12_Daniel\c3d\Daniel.ASF
:FULLY-SPECIFIED
:DEGREES
1305
root -3.21249 17.387 -2.11519 -183.207 13.8409 -179.662
lowerback 9.90288 1.44144 5.4816
upperback 1.69791 2.59022 -0.751121
thorax -3.5041 1.27667 -4.19848
lowerneck 1.07501 -4.38194 -7.87584
upperneck 6.61569 -5.99844 7.24433
head 2.48197 -2.95086 3.68645
rclavicle -2.74136e-014 3.97569e-015
rhumerus -30.0389 12.7406 -96.0032
rradius 42.0138
rwrist 5.47618
rhand -17.6104 19.1033
rfingers 7.12502
rthumb 8.64632 -10.6996
lclavicle -2.74136e-014 3.97569e-015
lhumerus -69.7326 48.4675 32.0783
lradius 14.7861
lwrist -58.5556
lhand -6.88469 -4.27025
lfingers 7.12502
lthumb 18.9817 24.8235
rfemur 26.0568 15.0452 36.5892
rtibia -1.27222e-014
rfoot -6.40365 8.58872
rtoes 4.88768
lfemur -31.9256 -9.45032 -10.3611
ltibia 38.1966
lfoot -25.0398 5.13714
ltoes -14.96
1306
root -3.20976 17.3587 -2.30488 -182.96 14.1344 -179.388
lowerback 9.83025 1.44484 5.89119
upperback 1.60577 2.62997 -0.735666
thorax -3.53772 1.28582 -4.4171
lowerneck 1.16822 -4.34251 -8.05531
upperneck 6.55073 -5.95357 7.3197
head 2.45016 -2.934 3.75113
rclavicle 5.82563e-014 -1.16289e-014
rhumerus -29.6529 12.9972 -96.0405
rradius 41.8071
rwrist 5.75172
rhand -17.6244 19.0293
rfingers 7.12502
rthumb 8.63282 -10.7742
lclavicle 5.82563e-014 -1.16289e-014
lhumerus -71.1745 49.0516 29.647
lradius 14.5695
lwrist -60.2445
lhand -7.002 -4.31691
lfingers 7.12502
lthumb 18.8689 24.7879
rfemur 26.5202 14.7473 36.6301
rtibia -5.725e-014
rfoot -6.83003 9.30192
rtoes 5.35778
lfemur -32.8012 -10.5893 -9.70517
ltibia 37.3296
lfoot -25.9246 5.94875
ltoes -14.4374
1307
root -3.20018 17.3219 -2.49871 -182.768 14.2697 -179.137
lowerback 9.72801 1.40436 6.19589
upperback 1.54831 2.60044 -0.695387
thorax -3.53269 1.2648 -4.54026
lowerneck 1.26129 -4.30263 -8.25503
upperneck 6.46509 -5.90814 7.38145
head 2.41147 -2.91818 3.81502
rclavicle -2.127e-014 2.5842e-015
rhumerus -29.2166 13.1752 -96.0365
rradius 41.4524
rwrist 6.10105
rhand -17.6637 19.0887
rfingers 7.12502
rthumb 8.5949 -10.7163
lclavicle -2.127e-014 2.5842e-015
lhumerus -72.7262 49.6372 27.1411
lradius 14.3959
lwrist -61.9503
lhand -7.17014 -4.34431
lfingers 7.12502
lthumb 18.7072 24.7762
rfemur 27.0543 14.2831 36.6482
rtibia 4.13472e-014
rfoot -7.26523 10.0098
rtoes 5.87082
lfemur -33.6498 -11.7783 -9.09393
ltibia 36.6378
lfoot -27.0254 6.924
ltoes -14.3498
1308
root -3.18472 17.2787 -2.69388 -182.604 14.2918 -178.902
lowerback 9.66933 1.34204 6.44917
upperback 1.49281 2.53898 -0.677076
thorax -3.5554 1.22769 -4.6558
lowerneck 1.22914 -4.29152 -8.36874
upperneck 6.46633 -5.89523 7.43642
head 2.424 -2.91376 3.85663
rclavicle 4.9634e-015 -5.36719e-015
rhumerus -28.8469 13.2009 -96.0569
rradius 41.117
rwrist 6.50329
rhand -17.6399 19.0915
rfingers 7.12502
rthumb 8.61784 -10.7126
lclavicle 4.9634e-015 -5.36719e-015
lhumerus -74.0655 50.1048 24.8772
lradius 14.2853
lwrist -63.4916
lhand -7.36963 -4.37771
lfingers 7.12502
lthumb 18.5153 24.7611
rfemur 27.6092 13.7021 36.6538
rtibia -1.90833e-014
rfoot -7.67396 10.706
rtoes 6.27031
lfemur -34.4684 -12.7112 -8.62152
ltibia 36.0867
lfoot -28.141 7.87087
ltoes -15.2103
1309
root -3.1673 17.2307 -2.89072 -182.464 14.2567 -178.726
lowerback 9.66359 1.26595 6.58729
upperback 1.42741 2.45216 -0.640531
thorax -3.62746 1.17724 -4.68684
lowerneck 1.06287 -4.28672 -8.52486
upperneck 6.55394 -5.88367 7.47498
head 2.49177 -2.90935 3.89837
rclavicle 3.37251e-014 -1.36167e-014
rhumerus -28.5677 13.1337 -96.0255
rradius 40.7392
rwrist 6.99396
rhand -17.6269 19.1857
rfingers 7.12502
rthumb 8.6304 -10.6179
lclavicle 3.37251e-014 -1.36167e-014
lhumerus -76.1843 50.8066 21.6235
lradius 14.1226
lwrist -65.6436
lhand -7.70462 -4.55586
lfingers 7.12502
lthumb 18.193 24.6133
rfemur 28.1826 13.0704 36.5899
rtibia -1.145e-013
rfoot -7.97583 11.3749
rtoes 6.79462
lfemur -35.1989 -13.2181 -8.41229
ltibia 35.6651
lfoot -29.0647 8.37366
ltoes -16.3259
1310
root -3.15053 17.1811 -3.08671 -182.354 14.2365 -178.547
lowerback 9.76559 1.19549 6.71433
upperback 1.35552 2.38151 -0.596422
thorax -3.76544 1.13259 -4.71002
lowerneck 0.898247 -4.29185 -8.61752
upperneck 6.77296 -5.9144 7.77466
head 2.3477 -2.90181 3.61887
rclavicle 7.9079e-015 8.44835e-015
rhumerus -28.3829 13.0554 -95.9924
rradius 40.3468
rwrist 7.41132
rhand -17.6464 19.3024
rfingers 7.12502
rthumb 8.61155 -10.502
lclavicle 7.9079e-015 8.44835e-015
lhumerus -78.6343 51.5571 17.9776
lradius 13.9893
lwrist -67.9749
lhand -8.07525 -4.71246
lfingers 7.12502
lthumb 17.8364 24.4896
rfemur 28.7768 12.4513 36.5227
rtibia 9.54166e-015
rfoot -8.16433 12.0387
rtoes 7.4659
lfemur -35.7469 -13.2416 -8.42762
ltibia 35.3485
lfoot -29.8878 8.3698
ltoes -18.8355
1311
root -3.13827 17.1341 -3.28084 -182.274 14.2847 -178.37
lowerback 9.98255 1.15388 6.86137
upperback 1.27981 2.36211 -0.552006
thorax -3.96443 1.11085 -4.75477
lowerneck 0.568791 -4.31794 -8.70867
upperneck 6.98249 -5.93374 7.75553
head 2.46782 -2.90809 3.61811
rclavicle -1.13121e-014 5.71506e-015
rhumerus -28.1975 12.8247 -95.9061
rradius 39.8616
rwrist 7.91992
rhand -17.7481 19.5133
rfingers 7.12502
rthumb 8.51347 -10.2951
lclavicle -1.13121e-014 5.71506e-015
lhumerus -81.5111 52.3307 13.8243
lradius 13.8363
lwrist -70.5466
lhand -8.54254 -4.92649
lfingers 7.12502
lthumb 17.3867 24.3159
rfemur 29.3881 11.9029 36.4378
rtibia -1.59028e-014
rfoot -8.29254 12.7012
rtoes 7.99321
lfemur -36.0778 -12.7438 -8.69451
ltibia 35.1295
lfoot -30.3084 7.87441
ltoes -21.6425
1312
root -3.1281 17.0895 -3.47439 -182.204 14.368 -178.209
lowerback 10.2858 1.1091 7.02206
upperback 1.1666 2.34592 -0.545745
thorax -4.24866 1.08472 -4.85214
lowerneck 0.299129 -4.34027 -8.72003
upperneck 7.15971 -5.95008 7.72418
head 2.56563 -2.91205 3.60247
rclavicle -2.85753e-016 -4.17448e-015
rhumerus -28.0755 12.3957 -95.8851
rradius 39.2496
rwrist 8.49267
rhand -17.9 19.8029
rfingers 7.12502
rthumb 8.36683 -10.0113
lclavicle -2.85753e-016 -4.17448e-015
lhumerus -84.6466 52.9802 9.37164
lradius 13.7233
lwrist -73.027
lhand -9.09313 -5.16672
lfingers 7.12502
lthumb 16.8568 24.1216
rfemur 29.9803 11.4004 36.3128
rtibia 6.36111e-014
rfoot -8.27508 13.3388
rtoes 8.71274
lfemur -36.2878 -12.0704 -9.0602
ltibia 34.999
lfoot -30.2392 7.0019
ltoes -23.2433
1313
root -3.11669 17.0446 -3.67004 -182.185 14.4674 -178.086
lowerback 10.62 1.07666 7.12997
upperback 1.08117 2.34426 -0.54485
thorax -4.52134 1.06803 -4.92783
lowerneck 0.00539749 -4.36653 -8.72046
upperneck 7.33369 -5.97032 7.68844
head 2.6664 -2.91769 3.58305
rclavicle -5.4759e-014 8.74653e-015
rhumerus -27.8744 11.6389 -95.8006
rradius 38.4495
rwrist 9.24341
rhand -18.0961 20.1638
rfingers 7.12502
rthumb 8.17756 -9.65797
lclavicle -5.4759e-014 8.74653e-015
lhumerus -88.1238 53.589 4.54654
lradius 13.6352
lwrist -75.5569
lhand -9.65228 -5.46494
lfingers 7.12502
lthumb 16.3185 23.8685
rfemur 30.6106 10.9079 36.1532
rtibia 5.725e-014
rfoot -8.14215 13.9748
rtoes 9.42472
lfemur -36.3984 -11.3834 -9.45908
ltibia 34.9815
lfoot -29.8379 5.80235
ltoes -23.9069
1314
root -3.10424 17.0006 -3.86882 -182.192 14.5697 -178.121
lowerback 10.9186 1.06387 7.0743
upperback 1.0011 2.34295 -0.590564
thorax -4.77299 1.05443 -4.9589
lowerneck -0.28192 -4.39945 -8.65904
upperneck 7.51296 -5.99867 7.61799
head 2.76561 -2.92657 3.54283
rclavicle -4.13224e-014 8.72168e-015
rhumerus -27.6629 10.5741 -95.6763
rradius 37.5169
rwrist 10.1144
rhand -18.378 20.5559
rfingers 7.12502
rthumb 7.90548 -9.27627
lclavicle -4.13224e-014 8.72168e-015
lhumerus -91.4496 54.0454 0.00117569
lradius 13.5918
lwrist -77.7071
lhand -10.2647 -5.74543
lfingers 7.12502
lthumb 15.7287 23.6354
rfemur 31.2409 10.4379 35.8178
rtibia -3.49861e-014
rfoot -7.90392 14.5765
rtoes 10.044
lfemur -36.4471 -10.77 -9.99501
ltibia 35.0787
lfoot -29.0751 4.41179
ltoes -23.8051
1315
root -3.08913 16.9604 -4.07091 -182.226 14.698 -178.297
lowerback 11.1708 1.08171 6.83889
upperback 0.925456 2.35269 -0.66674
thorax -4.99823 1.05059 -4.92018
lowerneck -0.527767 -4.42257 -8.58314
upperneck 7.66696 -6.01709 7.56347
head 2.84967 -2.93032 3.50664
rclavicle 2.17669e-014 -3.62782e-015
rhumerus -27.411 9.10978 -95.4945
rradius 36.3816
rwrist 11.1917
rhand -18.6774 21.0235
rfingers 7.12502
rthumb 7.61655 -8.81932
lclavicle 2.17669e-014 -3.62782e-015
lhumerus -94.852 54.4019 -4.57603
lradius 13.5599
lwrist -79.7202
lhand -10.9348 -5.95242
lfingers 7.12502
lthumb 15.0833 23.478
rfemur 31.8809 10.0127 35.3236
rtibia 1.27222e-014
rfoot -7.50863 15.1521
rtoes 10.723
lfemur -36.4291 -10.0961 -10.7035
ltibia 35.3186
lfoot -27.9214 2.97347
ltoes -24.0337
1316
root -3.07288 16.9232 -4.27702 -182.311 14.8135 -178.557
lowerback 11.4324 1.13169 6.60031
upperback 0.849706 2.39904 -0.81891
thorax -5.22107 1.06455 -4.96629
lowerneck -0.691103 -4.48375 -8.4272
upperneck 7.78235 -6.09235 7.50545
head 2.91074 -2.96116 3.4562
rclavicle -7.94125e-014 8.97016e-015
rhumerus -27.2166 7.29173 -95.2889
rradius 35.1506
rwrist 12.3625
rhand -19.1262 21.3869
rfingers 7.12502
rthumb 7.18338 -8.47123
lclavicle -7.94125e-014 8.97016e-015
lhumerus -97.5604 54.6619 -8.3839
lradius 13.5295
lwrist -81.2358
lhand -11.5509 -6.15534
lfingers 7.12502
lthumb 14.4897 23.3187
rfemur 32.5545 9.57904 34.7395
rtibia 8.90555e-014
rfoot -7.00263 15.6802
rtoes 11.3323
lfemur -36.3757 -9.68893 -11.4192
ltibia 35.6964
lfoot -26.4467 1.70404
ltoes -24.7175
